Patient5_TMGait_0pt45_1_left_13_EMG.mot
version=1
nRows=16
nColumns=33
inDegrees=no
endheader
time	1LAddLong	2LGlutMax	3LGlutMed	4LIliopsoas	5LSemiMemb	6LBicFemLong	7LRecFem	8LTensFascLat	9LVastMed	10LVasLat	11LGasMed	12lGasLat	13LTibAnt	14LPeroneusLong	15LSol	16LTibPost	17RAddLong	18RGlutMax	19RGlutMed	20RIliopsoas	21RSemiMemb	22RBicFemLong	23RRecFem	24RTensFascLat	25RVastMed	26RVasLat	27RGasMed	28RGasLat	29RTibAnt	30RPeroneusLong	31RSol	32RTibPost
20.18	-0.097504	0.005188	-0.008392	-0.020752	0.037842	-0.002441	-0.013275	-0.22781	-0.005188	0.001831	0.010681	0.036163	-0.00824	0.019379	0.004272	0.048981	-0.013733	0.028076	-0.16937	0.11978	-0.16647	-0.12512	0.007782	0.10757	0.006104	-0.051422	-0.000458	-0.11505	0.008087	0.010529	0.007477	-0.35523
20.181	-0.1326	0.003662	0.020142	-0.021515	0.040436	-0.011749	-0.012665	-0.20966	-0.01236	0.012817	-0.008698	0.02243	-0.006104	0.025635	0.005188	0.049133	-0.005798	0.038605	-0.46951	0.06424	-0.23377	0.56992	0.004425	0.10193	-0.016174	-0.31326	-0.003204	-0.18524	0.000458	-0.004425	0.023041	-0.096436
20.182	-0.15747	-0.000305	0.008698	-0.003967	0.031891	-0.011444	-0.008087	-0.19943	-0.009613	0.005035	0.003967	0.041046	-0.010529	0.037537	0.010834	-0.017548	-0.001831	0.048523	-0.77789	0.045319	-0.08667	0.73608	-0.002899	0.087738	-0.018921	-0.39307	-0.009613	-0.064087	0.004425	-0.02121	0.008392	0.010986
20.183	-0.2623	0.003204	0.011139	-0.006561	0.015411	-0.011902	-0.013428	-0.19241	-0.011139	0.005646	-0.004272	0.025787	-0.013123	0.027618	0.018463	-0.054626	-0.006714	0.052948	-0.55267	0.006256	0.13184	0.63355	-0.011444	0.006256	-0.043335	-0.19226	-0.019684	0.019684	0.009155	-0.030518	0.017548	0.00824
20.184	-0.2214	0.001221	0.008087	-0.048065	0.018768	-0.007782	-0.017548	-0.18601	-0.006256	-0.003662	-0.002289	0.013885	-0.006866	0.020599	0.016785	-0.06012	-0.00885	0.041046	-0.16846	0.064697	0.30838	0.439	-0.007782	-0.062714	-0.045013	-0.16068	-0.031433	0.056763	0.008698	-0.06012	0.011597	-0.033417
20.185	-0.20599	-0.001068	-0.013885	0.084381	0.006561	-0.009918	-0.014801	-0.1889	-0.007935	0.004578	0.001373	0.037689	-0.007477	0.020905	0.017395	-0.003815	-0.004883	0.031433	0.05188	0.16769	0.25391	0.31982	-0.009155	-0.1062	-0.003052	-0.14725	-0.027008	0.050201	-0.002594	-0.056305	0.01297	-0.010071
20.186	-0.20523	0.000305	-0.005493	0.054169	0.002747	0.001373	-0.016632	-0.17136	-0.001068	0.006409	0.001068	0.015411	-0.008392	0.018921	0.014496	0.001678	-0.023804	0.015411	0.26596	-0.068817	0.27359	0.33997	-0.00412	-0.16998	0.03952	-0.034027	-0.019226	0.012512	-0.005646	-0.045013	-0.019531	-0.006256
20.187	-0.39566	-0.00473	-0.015717	0.001526	-0.000763	-0.00885	-0.020294	-0.18417	0.002594	0.001526	0.003204	0.029449	-0.010376	0.023499	0.014801	0.039825	-0.066528	-0.002289	0.30167	-0.094757	0.31464	0.25879	-0.007935	-0.2182	0.071716	0.023499	-0.016785	-0.002136	-0.007172	-0.032654	0.033112	0.000458
20.188	-0.31921	0.001373	-0.020905	0.001221	0.001831	-0.01297	-0.010834	-0.19134	0.00473	0.000305	0.002136	0.030365	-0.006714	0.019226	0.018616	0.070801	-0.035706	-0.011749	0.15762	-0.016327	0.34851	0.14465	-0.012817	-0.16693	0.09964	-0.035553	-0.022583	0.020142	-0.00351	-0.026703	0.04364	0.00824
20.189	-0.23789	-0.002289	-0.022278	0.014648	0.009766	-0.007477	0.016632	-0.17883	0.007324	0.001373	0.001831	0.016022	-0.001678	0.025024	0.019989	-0.15213	-0.025787	-0.019226	0.09903	0.03479	0.26947	0.086823	-0.01236	-0.21042	0.05127	-0.1355	-0.010223	0.030823	-0.005341	-0.018768	0.010834	0.015411
20.19	-0.22507	-0.00351	-0.036774	0.032501	-0.006714	-0.010681	0.018463	-0.19455	0.007172	-0.002441	0.006866	0.02594	-0.005798	0.034943	0.018921	0.069733	-0.03418	-0.023804	0.2681	-0.029144	0.30548	-0.027008	0.002899	-0.242	0.059509	-0.11002	-0.006409	0.018311	-0.001678	-0.027008	0.001526	0.024872
20.191	-0.1506	-0.003815	-0.039063	0.020142	0.002289	-0.018311	0.023499	-0.20844	0.006866	-0.005493	0.001221	0.026855	-0.005341	0.027466	0.016174	-0.12512	-0.010376	-0.027924	0.36743	0.10071	0.31723	-0.10315	-0.001984	-0.24902	0.01709	-0.097351	-0.00061	0.004425	-0.001526	-0.024872	-0.002594	0.012665
20.192	-0.075684	0.004578	-0.03952	0.038605	0.006409	-0.020142	0.023651	-0.1976	0.005646	0.001221	-0.004272	0.023193	-0.006561	0.018158	0.000305	0.08194	-0.0177	-0.021973	0.5661	0.030823	-0.006104	-0.059357	-0.007172	-0.28153	-0.031738	-0.076294	0.001831	0.00061	-0.001984	-0.019379	-0.003662	0.003662
20.193	-0.003662	0.003052	-0.035095	0.01358	0.016479	-0.02182	0.02655	-0.17853	-0.003052	0.00412	0.005798	0.022278	-0.002441	0.0177	-0.000305	0.007477	-0.016785	-0.010681	0.47455	0.091248	-0.36713	-0.21637	-0.00061	-0.31647	-0.10407	-0.034332	0.00473	-0.014343	-0.001373	-0.020599	0.010986	-0.010376
20.194	0.064392	0.002899	-0.01236	0.005646	0.017242	-0.016632	0.016937	-0.17868	-0.00412	-0.006561	-0.006714	0.020294	-0.00885	0.017548	0.004272	0.18173	-0.010529	0.002441	0.35309	-0.088806	-0.45044	-0.19501	-0.007935	-0.41306	-0.13306	0.18127	-0.027161	-0.005341	-0.00061	-0.022583	0.016174	-0.032196
20.195	0.10162	0.002747	-0.005951	0.003052	0.018311	-0.016479	0.015564	-0.17242	-0.005493	0.001984	-0.023041	0.02243	-0.000763	0.014954	0.003967	0.074005	-0.000305	0.016479	0.29587	0.090027	-0.25284	0.055542	-0.006561	-0.49866	-0.096436	0.20035	-0.034943	-0.002899	0.000305	-0.022583	0.014496	-0.00946
